<svg xmlns="http://www.w3.org/2000/svg" viewBox="0 0 64 64"><defs><style>.cls-1{fill:#304f87;}.cls-2{fill:#fff;}</style></defs><g id="Layer_2" data-name="Layer 2"><g id="Layer_1-2" data-name="Layer 1"><circle class="cls-1" cx="32" cy="32" r="32"/><path class="cls-2" d="M15.11,34.81H10A21.74,21.74,0,0,1,9.84,32,23,23,0,0,1,10,29.24h5.1A16.76,16.76,0,0,0,14.88,32,17.37,17.37,0,0,0,15.11,34.81Z"/><path class="cls-2" d="M48.28,37.28h5.24a22.16,22.16,0,0,1-43,0h5.24a17.2,17.2,0,0,0,11,11,16.53,16.53,0,0,0,2.52.61,17.54,17.54,0,0,0,2.73.22,17.37,17.37,0,0,0,5.36-.86A17.21,17.21,0,0,0,48.28,37.28Z"/><path class="cls-2" d="M53.51,26.67H48.27a17.16,17.16,0,0,0-15-11.74c-.42,0-.84,0-1.26,0s-.84,0-1.26,0a17.13,17.13,0,0,0-15,11.79H10.48a22.16,22.16,0,0,1,43,0Z"/><path class="cls-2" d="M54.16,32A23,23,0,0,1,54,34.76h-5.1A16.76,16.76,0,0,0,49.12,32a17.37,17.37,0,0,0-.23-2.81H54A21.74,21.74,0,0,1,54.16,32Z"/><path class="cls-2" d="M42.45,26.4q-2.25-2.07-6.54-2.07h-7.4l-4.17,3.73h11a5.18,5.18,0,0,1,3.55,1.06,3.79,3.79,0,0,1,1.18,3,3.83,3.83,0,0,1-1.18,3,5.23,5.23,0,0,1-3.55,1h-11V50.38h4.77V39.89h6.8q4.29,0,6.54-2.11a7.38,7.38,0,0,0,2.26-5.69A7.31,7.31,0,0,0,42.45,26.4Z"/></g></g></svg>