<svg xmlns="http://www.w3.org/2000/svg" viewBox="0 0 150.02 37.13"><defs><style>.cls-1{fill:#1d3559;}.cls-2{fill:#304f87;}</style></defs><g id="Layer_2" data-name="Layer 2"><g id="Layer_1-2" data-name="Layer 1"><path class="cls-1" d="M141.11,25.78l6.61-12.4v.86h-7.23V12.16H150V14l-6.19,11.77Z"/><path class="cls-1" d="M110.1,25.78V24l4.53-4.72a8,8,0,0,0,1.25-1.64,3.24,3.24,0,0,0,.41-1.55,1.83,1.83,0,0,0-.62-1.49,2.82,2.82,0,0,0-1.8-.5,4.85,4.85,0,0,0-1.81.34,6.27,6.27,0,0,0-1.71,1l-.81-1.85a6.43,6.43,0,0,1,2.06-1.18,7.45,7.45,0,0,1,2.58-.45,5.1,5.1,0,0,1,3.38,1,3.47,3.47,0,0,1,1.18,2.82,5.2,5.2,0,0,1-.6,2.43,10,10,0,0,1-1.85,2.4l-3.77,3.77v-.65h6.76v2.06Z"/><path class="cls-1" d="M127.07,25.78V23.12H121V21.38l6.47-9.22h2v9.06h1.95v1.9h-1.95v2.66Zm0-4.56V15.1h.47l-4.7,6.7v-.58Z"/><path class="cls-1" d="M134.46,25.47h-1.67l4.28-13.2h1.67Z"/><polygon class="cls-1" points="122.19 30.38 128.94 37.13 128.94 29.85 121.66 29.85 122.19 30.38"/><path class="cls-1" d="M104,20.72h-2.71c0-.48-.06-1-.06-1.45a16.37,16.37,0,0,1,.09-1.72H104a14.94,14.94,0,0,0,0,3.17Z"/><path class="cls-1" d="M126.18,34.12a16.9,16.9,0,0,1-24.71-11.78h2.75a14.23,14.23,0,0,0,20.67,9.42Z"/><path class="cls-1" d="M128.05,5.6l-1.59,2.17a14.09,14.09,0,0,0-8.36-2.72,14.24,14.24,0,0,0-13.82,10.88h-2.76A16.91,16.91,0,0,1,128.05,5.6Z"/><path class="cls-1" d="M42.73,28.47a6.37,6.37,0,0,1-6-3.8,10.2,10.2,0,0,1-.87-4.39,10.12,10.12,0,0,1,.87-4.38,6.4,6.4,0,0,1,6-3.78,6.25,6.25,0,0,1,3.5,1,4.64,4.64,0,0,1,2,2.63H47.9l.34-3.3H52c-.07.64-.12,1.3-.17,2s-.08,1.32-.08,2V28.16H47.87l0-3.24h.38a4.56,4.56,0,0,1-2,2.58A6.26,6.26,0,0,1,42.73,28.47Zm1.09-3a3.74,3.74,0,0,0,3-1.29,5.88,5.88,0,0,0,1.12-3.91,5.84,5.84,0,0,0-1.12-3.9,4.08,4.08,0,0,0-5.92,0,5.78,5.78,0,0,0-1.12,3.9,5.89,5.89,0,0,0,1.1,3.91A3.73,3.73,0,0,0,43.82,25.48Z"/><path class="cls-1" d="M55.5,35.23l-.91-3.09a13.94,13.94,0,0,0,2.46-.71,4.74,4.74,0,0,0,1.65-1.06,5.25,5.25,0,0,0,1.09-1.68l.78-1.84-.09,1.53L53.63,12.43h4.14L62.69,24.7h-.9l4.95-12.27h3.92L63.5,29a13.33,13.33,0,0,1-1.56,2.79A7.74,7.74,0,0,1,58,34.64,17.28,17.28,0,0,1,55.5,35.23Z"/><path class="cls-1" d="M72.5,9.47V5.67h4.33v3.8Zm.22,18.69V12.43h3.89V28.16Z"/><path class="cls-1" d="M80.85,28.16V16.35c0-.64,0-1.29-.06-2s-.11-1.32-.19-2h3.77l.31,3.11h-.37A5.47,5.47,0,0,1,86.52,13a6.33,6.33,0,0,1,3.39-.89,5.37,5.37,0,0,1,4.18,1.55,7.14,7.14,0,0,1,1.4,4.86v9.63h-3.9V18.72A4,4,0,0,0,90.86,16a2.78,2.78,0,0,0-2.19-.83,3.75,3.75,0,0,0-2.87,1.12,4.22,4.22,0,0,0-1.06,3v8.88Z"/><path class="cls-2" d="M3.79,18H.13a14.9,14.9,0,0,1-.13-2,16.19,16.19,0,0,1,.12-2H3.78a13,13,0,0,0-.16,2A12.15,12.15,0,0,0,3.79,18Z"/><path class="cls-2" d="M27.65,19.73h3.76a15.94,15.94,0,0,1-30.95,0H4.24A12.36,12.36,0,0,0,14,28.09a12.74,12.74,0,0,0,2,.15,12.39,12.39,0,0,0,2-.16,13.82,13.82,0,0,0,1.82-.45A12.39,12.39,0,0,0,27.65,19.73Z"/><path class="cls-2" d="M31.4,12.1H27.63A12.33,12.33,0,0,0,16.84,3.66c-.3,0-.6,0-.91,0s-.6,0-.9,0A12.35,12.35,0,0,0,4.22,12.14H.45a15.94,15.94,0,0,1,31,0Z"/><path class="cls-2" d="M31.87,15.93a16.24,16.24,0,0,1-.12,2H28.08a11.88,11.88,0,0,0,.16-2,12.32,12.32,0,0,0-.16-2h3.66A15.12,15.12,0,0,1,31.87,15.93Z"/><path class="cls-2" d="M23.45,11.91a6.68,6.68,0,0,0-4.7-1.49H13.43l-3,2.68h7.92a3.72,3.72,0,0,1,2.55.76A2.7,2.7,0,0,1,21.75,16a2.72,2.72,0,0,1-.85,2.14,3.77,3.77,0,0,1-2.55.76H10.43V29.16h3.43V21.61h4.89a6.64,6.64,0,0,0,4.7-1.52A5.33,5.33,0,0,0,25.07,16,5.27,5.27,0,0,0,23.45,11.91Z"/></g></g></svg>