<?xml version="1.0" ?><svg height="512" preserveAspectRatio="xMidYMid" viewBox="0 0 512 512" width="512" xmlns="http://www.w3.org/2000/svg" xmlns:xlink="http://www.w3.org/1999/xlink"><defs><style>
      .cls-1 {
        fill: #fff;
      }

      .cls-2 {
        fill: #29a8f7;
      }

      .cls-2, .cls-3 {
        fill-rule: evenodd;
      }

      .cls-3 {
        fill: #000;
        opacity: 0.1;
      }
    </style></defs><circle class="cls-1" cx="256" cy="256" r="256"/><path class="cls-2" d="M256.000,512.000 C114.615,512.000 0.000,397.385 0.000,256.000 C0.000,114.615 114.615,0.000 256.000,0.000 C397.385,0.000 512.000,114.615 512.000,256.000 C512.000,397.385 397.385,512.000 256.000,512.000 ZM302.642,345.337 C302.642,321.465 302.293,300.184 302.642,265.212 C285.467,165.081 184.924,199.881 179.640,232.374 C179.640,195.239 179.640,177.435 179.640,153.563 C169.071,104.492 127.299,127.292 127.299,127.292 C127.299,127.292 125.990,345.387 125.990,368.981 C125.990,392.574 179.640,394.578 179.640,367.667 C179.640,340.756 179.219,301.568 179.640,278.348 C180.374,237.797 250.300,232.220 250.300,275.721 C250.300,304.844 251.609,313.193 251.609,342.710 C251.609,372.228 288.315,389.997 320.961,389.997 C353.608,389.997 390.313,374.179 390.313,337.456 C390.313,300.733 390.313,247.090 390.313,219.239 C390.313,206.446 373.750,201.506 360.217,202.163 C347.612,202.775 337.972,207.392 337.972,223.179 C337.972,258.325 337.972,328.083 337.972,346.651 C337.972,365.218 302.642,369.210 302.642,345.337 ZM361.526,122.038 C331.046,123.144 334.046,150.936 334.046,150.936 C334.046,150.936 335.499,177.943 364.143,177.206 C392.787,176.469 391.622,149.622 391.622,149.622 C391.622,149.622 392.006,120.932 361.526,122.038 Z"/><path class="cls-3" d="M436.999,75.012 C536.959,174.972 536.959,337.039 436.999,436.999 C337.039,536.959 174.972,536.959 75.012,436.999 "/></svg>