<?xml version="1.0" ?><svg height="512" preserveAspectRatio="xMidYMid" viewBox="0 0 512 512" width="512" xmlns="http://www.w3.org/2000/svg" xmlns:xlink="http://www.w3.org/1999/xlink"><defs><style>
      .cls-1 {
        fill: #fff;
      }

      .cls-2 {
        fill: #ff4d28;
      }

      .cls-2, .cls-3 {
        fill-rule: evenodd;
      }

      .cls-3 {
        fill: #000;
        opacity: 0.1;
      }
    </style></defs><circle class="cls-1" cx="256" cy="256" r="256"/><path class="cls-2" d="M256.000,512.000 C114.615,512.000 0.000,397.385 0.000,256.000 C0.000,114.615 114.615,0.000 256.000,0.000 C397.385,0.000 512.000,114.615 512.000,256.000 C512.000,397.385 397.385,512.000 256.000,512.000 ZM383.224,148.324 C363.787,101.975 160.980,146.326 122.418,122.006 C103.137,146.326 107.626,161.372 110.979,168.920 C114.332,176.468 129.469,194.753 208.209,184.940 C204.018,258.740 180.609,383.911 195.626,405.780 C204.708,419.005 267.848,417.749 274.555,403.492 C283.479,384.522 236.219,355.715 272.267,183.796 C305.800,179.602 335.353,174.194 367.209,191.805 C375.592,185.096 392.686,170.887 383.224,148.324 Z"/><path class="cls-3" d="M436.999,75.012 C536.959,174.972 536.959,337.039 436.999,436.999 C337.039,536.959 174.972,536.959 75.012,436.999 "/></svg>