<svg id="Capa_1" enable-background="new 0 0 512 512" height="512" viewBox="0 0 512 512" width="512" xmlns="http://www.w3.org/2000/svg"><path d="m418.121 512h-324.242c-51.765 0-93.879-42.114-93.879-93.879v-324.242c0-51.765 42.114-93.879 93.879-93.879h324.242c51.765 0 93.879 42.114 93.879 93.879v324.242c0 51.765-42.114 93.879-93.879 93.879z" fill="#01de6c"/><path d="m418.121 0h-161.68v512h161.68c51.765 0 93.879-42.114 93.879-93.879v-324.242c0-51.765-42.114-93.879-93.879-93.879z" fill="#05ce5f"/><path d="m199.936 305.464c0-33.321 16.173-64.035 45.541-86.484 23.947-18.304 54.584-29.194 87.217-31.168-3.157-24.925-17.293-47.974-40.597-65.788-26.217-20.04-60.999-31.076-97.939-31.076s-71.722 11.036-97.938 31.075c-26.616 20.346-41.274 47.52-41.274 76.517 0 28.273 14.06 54.979 39.59 75.195l3.792 3.003v58.523c0 1.913 1.115 3.684 2.841 4.511.679.324 1.404.489 2.156.489 1.138 0 2.252-.393 3.137-1.104l46.807-37.673 4.625.961c11.778 2.446 23.979 3.687 36.265 3.687 1.936 0 3.864-.037 5.786-.098-.001-.191-.009-.38-.009-.57z" fill="#fff"/><path d="m256.441 211.432c22.024-13.738 48.404-21.936 76.253-23.621-3.157-24.925-17.293-47.974-40.597-65.788-10.622-8.119-22.649-14.759-35.656-19.787z" fill="#e6ecf4"/><path d="m150.89 201.3c-6.285 0-11.986-4.062-14.119-9.952-2.131-5.885-.229-12.689 4.609-16.647 4.837-3.957 11.849-4.503 17.211-1.266 5.367 3.241 8.237 9.632 6.999 15.795-1.391 6.917-7.629 12.07-14.7 12.07z" fill="#01de6c"/><path d="m237.43 201.3c-6.285 0-11.986-4.062-14.119-9.952-2.131-5.884-.228-12.69 4.609-16.647 4.851-3.968 11.835-4.486 17.212-1.266 5.371 3.217 8.237 9.648 7.007 15.795-1.384 6.919-7.648 12.07-14.709 12.07z" fill="#01de6c"/><path d="m416.967 421.053c-1.138 0-2.252-.393-3.137-1.104l-37.473-30.159-4.579.908c-9.2 1.824-18.716 2.749-28.283 2.749-30.089 0-58.429-8.997-79.799-25.333-21.771-16.642-33.76-38.891-33.76-62.649s11.99-46.009 33.76-62.65c21.371-16.336 49.711-25.332 79.799-25.332s58.428 8.996 79.799 25.332c21.77 16.642 33.76 38.892 33.76 62.65 0 22.751-11.149 44.335-31.394 60.777l-3.696 3.002v46.81c0 1.913-1.115 3.684-2.842 4.511-.677.323-1.404.488-2.155.488z" fill="#fff"/><path d="m423.294 242.814c-21.371-16.336-49.711-25.332-79.799-25.332s-58.428 8.996-79.799 25.332c-2.556 1.954-4.972 3.988-7.255 6.09v113.12c2.283 2.102 4.699 4.136 7.255 6.09 21.371 16.336 49.71 25.333 79.799 25.333 9.567 0 19.084-.925 28.283-2.749l4.579-.908 37.473 30.159c.885.712 1.999 1.104 3.137 1.104.751 0 1.478-.165 2.156-.489 1.727-.827 2.842-2.598 2.842-4.511v-46.81l3.696-3.002c20.245-16.442 31.394-38.026 31.394-60.777-.001-23.759-11.99-46.009-33.761-62.65z" fill="#e6ecf4"/><g fill="#01de6c"><path d="m378.5 310.56c-6.289 0-11.983-4.048-14.119-9.946-2.127-5.875-.236-12.69 4.599-16.644 4.859-3.973 11.832-4.48 17.221-1.27 5.366 3.196 8.244 9.667 6.999 15.791-1.408 6.923-7.613 12.069-14.7 12.069z"/><path d="m308.5 310.56c-6.288 0-11.983-4.049-14.119-9.946-2.127-5.875-.236-12.69 4.599-16.644 4.859-3.973 11.832-4.48 17.221-1.27 5.377 3.202 8.229 9.66 6.999 15.791-1.39 6.924-7.626 12.069-14.7 12.069z"/></g></svg>